<svg width="180" height="180" viewBox="0 0 180 180" fill="none" xmlns="http://www.w3.org/2000/svg">
<g clip-path="url(#clip0_1_26)">
<path fill-rule="evenodd" clip-rule="evenodd" d="M90 155.25C126.037 155.25 155.25 126.037 155.25 90C155.25 53.9634 126.037 24.75 90 24.75C53.9634 24.75 24.75 53.9634 24.75 90C24.75 126.037 53.9634 155.25 90 155.25ZM157.5 90C157.5 127.279 127.279 157.5 90 157.5C52.7208 157.5 22.5 127.279 22.5 90C22.5 52.7208 52.7208 22.5 90 22.5C127.279 22.5 157.5 52.7208 157.5 90Z" fill="#FFF308" fill-opacity="0.2"/>
<path fill-rule="evenodd" clip-rule="evenodd" d="M89.625 146.25C120.898 146.25 146.25 120.898 146.25 89.625C146.25 58.3519 120.898 33 89.625 33C58.3519 33 33 58.3519 33 89.625C33 120.898 58.3519 146.25 89.625 146.25ZM149.25 89.625C149.25 122.555 122.555 149.25 89.625 149.25C56.695 149.25 30 122.555 30 89.625C30 56.695 56.695 30 89.625 30C122.555 30 149.25 56.695 149.25 89.625Z" fill="#FFF308" fill-opacity="0.6"/>
<path fill-rule="evenodd" clip-rule="evenodd" d="M89.625 140.25C117.584 140.25 140.25 117.584 140.25 89.625C140.25 61.6656 117.584 39 89.625 39C61.6656 39 39 61.6656 39 89.625C39 117.584 61.6656 140.25 89.625 140.25Z" fill="#FFEC65"/>
</g>
<defs>
<clipPath id="clip0_1_26">
<rect width="135" height="135" fill="white" transform="translate(22.5 22.5)"/>
</clipPath>
</defs>
</svg>
