<svg width="180" height="180" viewBox="0 0 180 180" fill="none" xmlns="http://www.w3.org/2000/svg">
<path d="M146.227 73.199C146.242 72.7298 146.25 72.2587 146.25 71.7857C146.25 48.7081 127.614 30 104.625 30C86.3887 30 70.8914 41.7726 65.2632 58.1601C61.2212 56.0427 56.6249 54.8455 51.75 54.8455C35.5957 54.8455 22.5 67.9918 22.5 84.2085C22.5 100.425 35.5957 113.571 51.75 113.571L104.625 113.571C104.644 113.571 104.662 113.571 104.681 113.571H136.125C147.93 113.571 157.5 103.965 157.5 92.1139C157.5 83.9312 152.937 76.8183 146.227 73.199Z" fill="white"/>
<path fill-rule="evenodd" clip-rule="evenodd" d="M42.75 123.75C42.75 121.679 44.4289 120 46.5 120H132.75C134.821 120 136.5 121.679 136.5 123.75C136.5 125.821 134.821 127.5 132.75 127.5H46.5C44.4289 127.5 42.75 125.821 42.75 123.75ZM42.75 138.75C42.75 136.679 44.4289 135 46.5 135H132.75C134.821 135 136.5 136.679 136.5 138.75C136.5 140.821 134.821 142.5 132.75 142.5H46.5C44.4289 142.5 42.75 140.821 42.75 138.75ZM46.5 150C44.4289 150 42.75 151.679 42.75 153.75C42.75 155.821 44.4289 157.5 46.5 157.5H132.75C134.821 157.5 136.5 155.821 136.5 153.75C136.5 151.679 134.821 150 132.75 150H46.5Z" fill="#A1C5DA" fill-opacity="0.6"/>
</svg>
