<svg width="180" height="180" viewBox="0 0 180 180" fill="none" xmlns="http://www.w3.org/2000/svg">
<g clip-path="url(#clip0_1_66)">
<path fill-rule="evenodd" clip-rule="evenodd" d="M90 155.25C126.037 155.25 155.25 126.037 155.25 90C155.25 53.9634 126.037 24.75 90 24.75C53.9634 24.75 24.75 53.9634 24.75 90C24.75 126.037 53.9634 155.25 90 155.25ZM157.5 90C157.5 127.279 127.279 157.5 90 157.5C52.7208 157.5 22.5 127.279 22.5 90C22.5 52.7208 52.7208 22.5 90 22.5C127.279 22.5 157.5 52.7208 157.5 90Z" fill="#FFF308" fill-opacity="0.2"/>
<path fill-rule="evenodd" clip-rule="evenodd" d="M89.625 146.25C120.898 146.25 146.25 120.898 146.25 89.625C146.25 58.3519 120.898 33 89.625 33C58.3519 33 33 58.3519 33 89.625C33 120.898 58.3519 146.25 89.625 146.25ZM149.25 89.625C149.25 122.555 122.555 149.25 89.625 149.25C56.695 149.25 30 122.555 30 89.625C30 56.695 56.695 30 89.625 30C122.555 30 149.25 56.695 149.25 89.625Z" fill="#FFF308" fill-opacity="0.6"/>
<path fill-rule="evenodd" clip-rule="evenodd" d="M89.625 140.25C117.584 140.25 140.25 117.584 140.25 89.625C140.25 61.6656 117.584 39 89.625 39C61.6656 39 39 61.6656 39 89.625C39 117.584 61.6656 140.25 89.625 140.25Z" fill="#FFEC65"/>
</g>
<path d="M156.858 68.5147C156.869 68.1778 156.875 67.8396 156.875 67.5C156.875 50.9315 143.416 37.5 126.813 37.5C113.642 37.5 102.449 45.9521 98.3846 57.7175C95.4653 56.1973 92.1458 55.3378 88.625 55.3378C76.958 55.3378 67.5 64.7761 67.5 76.4189C67.5 88.0617 76.958 97.5 88.625 97.5L126.853 97.5H149.562C158.088 97.5 165 90.6027 165 82.0946C165 76.2198 161.705 71.1131 156.858 68.5147Z" fill="white"/>
<path d="M69.9897 121.95C69.9966 121.741 70 121.532 70 121.321C70 111.065 61.7173 102.75 51.5 102.75C43.395 102.75 36.5073 107.982 34.0059 115.266C32.2094 114.325 30.1666 113.792 28 113.792C20.8203 113.792 15 119.635 15 126.843C15 134.05 20.8203 139.893 28 139.893L51.5249 139.893H65.5C70.7467 139.893 75 135.623 75 130.356C75 126.719 72.9722 123.558 69.9897 121.95Z" fill="white"/>
<defs>
<clipPath id="clip0_1_66">
<rect width="135" height="135" fill="white" transform="translate(22.5 22.5)"/>
</clipPath>
</defs>
</svg>
