<svg width="180" height="180" viewBox="0 0 180 180" fill="none" xmlns="http://www.w3.org/2000/svg">
<g clip-path="url(#clip0_1_89)">
<path d="M146.227 73.5999C146.242 73.1262 146.25 72.6506 146.25 72.173C146.25 48.8735 127.614 29.9855 104.625 29.9855C86.3887 29.9855 70.8914 41.8713 65.2632 58.4164C61.2212 56.2786 56.6249 55.07 51.75 55.07C35.5957 55.07 22.5 68.3426 22.5 84.7153C22.5 101.088 35.5957 114.361 51.75 114.361L104.625 114.361C104.644 114.361 104.662 114.361 104.681 114.36H136.125C147.93 114.36 157.5 104.661 157.5 92.6966C157.5 84.4353 152.937 77.254 146.227 73.5999Z" fill="white"/>
<path fill-rule="evenodd" clip-rule="evenodd" d="M86.5515 125.032C87.1915 123.063 89.3071 121.985 91.2768 122.625C93.2465 123.265 94.3244 125.38 93.6844 127.35L80.907 166.675C80.267 168.645 78.1514 169.722 76.1817 169.082C74.212 168.442 73.134 166.327 73.774 164.357L86.5515 125.032ZM101.651 125.032C102.291 123.063 104.406 121.985 106.376 122.625C108.346 123.265 109.424 125.38 108.784 127.35L99.0938 157.172C98.4538 159.142 96.3383 160.22 94.3685 159.58C92.3988 158.94 91.3209 156.824 91.9609 154.854L101.651 125.032ZM76.1777 122.625C74.208 121.985 72.0924 123.063 71.4524 125.032L64.8503 145.352C64.2103 147.321 65.2882 149.437 67.2579 150.077C69.2276 150.717 71.3432 149.639 71.9832 147.669L78.5854 127.35C79.2254 125.38 78.1474 123.265 76.1777 122.625Z" fill="#B4F5F2"/>
</g>
<defs>
<clipPath id="clip0_1_89">
<rect width="180" height="180" fill="white"/>
</clipPath>
</defs>
</svg>
