<svg width="180" height="180" viewBox="0 0 180 180" fill="none" xmlns="http://www.w3.org/2000/svg">
<g clip-path="url(#clip0_1_97)">
<path fill-rule="evenodd" clip-rule="evenodd" d="M146.25 71.7857C146.25 72.2587 146.242 72.7298 146.227 73.199C152.937 76.8183 157.5 83.9312 157.5 92.1139C157.5 103.965 147.93 113.571 136.125 113.571H104.681L104.625 113.571H103.774C104.343 113.175 107.903 110.701 108.841 110.082C110.658 111.325 113.102 111.499 115.138 110.327C117.2 109.14 118.273 106.896 118.065 104.675C119.264 103.971 119.301 104.043 119.301 104.043C122.12 102.42 123.087 98.8148 121.458 96C119.829 93.1865 116.219 92.2153 113.395 93.8409C113.395 93.8409 113.263 93.943 112.117 94.5146C110.304 93.2943 107.879 93.1306 105.857 94.295C103.811 95.4732 102.739 97.6911 102.925 99.8954C101.875 100.523 97.406 103.235 97.406 103.235C97.406 103.235 97.418 97.4576 97.4685 96.6649C99.4304 95.7071 100.781 93.6973 100.781 91.3719C100.781 89.0189 99.3947 86.9868 97.3924 86.0434C97.4216 85.0107 97.406 84.634 97.406 84.634C97.406 81.3881 94.759 78.75 91.5 78.75C88.2425 78.75 85.594 81.3829 85.594 84.634C85.594 84.634 85.6086 84.7581 85.5992 86.0465C83.6007 86.9908 82.2192 89.0199 82.2192 91.3719C82.2192 93.7327 83.6144 95.7705 85.6274 96.7098C85.5724 98.2567 85.594 103.235 85.594 103.235C85.594 103.235 81.1886 100.641 80.0788 99.8555C80.2494 97.6644 79.1785 95.4671 77.1428 94.295C75.1137 93.1265 72.6758 93.2971 70.8593 94.5316C69.7125 93.9546 69.6046 93.8409 69.6046 93.8409C66.786 92.2179 63.1718 93.1852 61.5423 96C59.9136 98.8135 60.8755 102.418 63.6986 104.043C63.6986 104.043 63.9665 104.042 64.9304 104.714C64.7384 106.922 65.81 109.145 67.862 110.327C69.9066 111.504 72.3662 111.322 74.1869 110.062C74.7459 110.513 79.2816 113.16 79.9868 113.571L51.75 113.571C35.5957 113.571 22.5 100.425 22.5 84.2085C22.5 67.9918 35.5957 54.8455 51.75 54.8455C56.6249 54.8455 61.2212 56.0427 65.2632 58.1601C70.8914 41.7726 86.3887 30 104.625 30C127.614 30 146.25 48.7081 146.25 71.7857Z" fill="white"/>
<path fill-rule="evenodd" clip-rule="evenodd" d="M89.0482 131.902V94.4378H88.2336C86.878 94.4378 85.779 93.3411 85.779 91.9945C85.779 90.6451 86.8761 89.5512 88.2336 89.5512H89.0482V85.473C89.0482 84.1269 90.1487 83.0358 91.5001 83.0358C92.8543 83.0358 93.952 84.1333 93.952 85.473V89.5512H94.7666C96.1223 89.5512 97.2213 90.6479 97.2213 91.9945C97.2213 93.3439 96.1241 94.4378 94.7666 94.4378H93.952V131.902H94.7666C96.1223 131.902 97.2213 132.998 97.2213 134.345C97.2213 135.694 96.1241 136.788 94.7666 136.788H93.952V140.866C93.952 142.212 92.8515 143.304 91.5001 143.304C90.146 143.304 89.0482 142.206 89.0482 140.866V136.788H88.2336C86.878 136.788 85.779 135.692 85.779 134.345C85.779 132.995 86.8761 131.902 88.2336 131.902H89.0482Z" fill="white"/>
<path fill-rule="evenodd" clip-rule="evenodd" d="M76.4466 101.688L109.006 120.42L109.413 119.717C110.091 118.547 111.593 118.147 112.764 118.82C113.936 119.495 114.339 120.989 113.66 122.16L113.253 122.863L116.797 124.902C117.967 125.575 118.365 127.07 117.689 128.237C117.012 129.405 115.509 129.804 114.345 129.134L110.801 127.095L110.393 127.798C109.715 128.968 108.213 129.368 107.043 128.694C105.87 128.02 105.468 126.526 106.146 125.355L106.554 124.652L73.9946 105.92L73.5874 106.623C72.9095 107.793 71.407 108.193 70.2366 107.519C69.0639 106.845 68.6618 105.351 69.3405 104.179L69.7478 103.476L66.2035 101.437C65.0337 100.764 64.6356 99.2689 65.3113 98.1027C65.9884 96.9341 67.4911 96.5355 68.6554 97.2054L72.1997 99.2445L72.607 98.5415C73.2848 97.3716 74.7874 96.9715 75.9577 97.6449C77.1305 98.3196 77.5326 99.8133 76.8538 100.985L76.4466 101.688Z" fill="white"/>
<path fill-rule="evenodd" clip-rule="evenodd" d="M109.006 105.92L76.4465 124.652L76.8538 125.355C77.5316 126.524 77.128 128.021 75.9577 128.695C74.785 129.369 73.2857 128.969 72.6069 127.798L72.1997 127.095L68.6553 129.134C67.4855 129.807 65.9869 129.403 65.3112 128.237C64.6342 127.068 65.0391 125.572 66.2034 124.902L69.7477 122.863L69.3405 122.16C68.6626 120.99 69.0662 119.493 70.2366 118.82C71.4093 118.145 72.9085 118.545 73.5873 119.717L73.9946 120.42L106.554 101.688L106.146 100.985C105.469 99.8149 105.872 98.3182 107.043 97.6449C108.215 96.9702 109.715 97.37 110.393 98.5416L110.801 99.2445L114.345 97.2054C115.515 96.5324 117.013 96.9365 117.689 98.1027C118.366 99.2714 117.961 100.767 116.797 101.437L113.252 103.476L113.66 104.179C114.338 105.349 113.934 106.846 112.764 107.519C111.591 108.194 110.092 107.794 109.413 106.623L109.006 105.92Z" fill="white"/>
</g>
<defs>
<clipPath id="clip0_1_97">
<rect width="180" height="180" fill="white"/>
</clipPath>
</defs>
</svg>
